<?xml version="1.0" encoding="UTF-8"?>
<svg version="1.1" xmlns="http://www.w3.org/2000/svg" width="1024" height="1536">
<path d="M0 0 C337.92 0 675.84 0 1024 0 C1024 506.88 1024 1013.76 1024 1536 C686.08 1536 348.16 1536 0 1536 C0 1029.12 0 522.24 0 0 Z " fill="#FEFEFE" transform="translate(0,0)"/>
<path d="M0 0 C3.66575955 3.2187157 5.6914154 5.90715253 6.87890625 10.64453125 C8.77445621 17.35441004 11.62173859 23.60188785 14.5 29.9375 C14.78628265 30.57105408 15.07256531 31.20460815 15.36752319 31.85736084 C32.02149133 68.64098792 53.0024869 103.8415316 77.08056641 136.25048828 C78.51712204 138.18877339 79.93887184 140.13693861 81.35546875 142.08984375 C94.48979459 160.17518095 108.21885206 177.83251815 122.41210938 195.09790039 C123.20198242 196.06264282 123.20198242 196.06264282 124.0078125 197.046875 C124.47719238 197.61760742 124.94657227 198.18833984 125.43017578 198.77636719 C126.5625 200.25 126.5625 200.25 127.5625 202.25 C126.97573486 202.28440186 126.38896973 202.31880371 125.78442383 202.35424805 C111.88211453 203.22474504 98.79849556 205.16337333 85.35229492 208.82275391 C83.5625 209.25 83.5625 209.25 81.5625 209.25 C81.5625 209.91 81.5625 210.57 81.5625 211.25 C82.29734619 211.52078369 83.03219238 211.79156738 83.78930664 212.07055664 C86.45123521 213.20267891 88.57039226 214.46614129 90.93359375 216.12109375 C91.74812012 216.68973145 92.56264648 217.25836914 93.40185547 217.84423828 C94.25924316 218.45251465 95.11663086 219.06079102 96 219.6875 C96.89090332 220.31640137 97.78180664 220.94530273 98.69970703 221.59326172 C121.70789201 237.94478212 144.328781 256.6814884 162.73828125 278.15234375 C163.9821954 279.58271184 165.25184069 280.99100725 166.54296875 282.37890625 C173.81715912 290.20959205 180.18956731 298.68485914 186.5625 307.25 C187.22185547 308.13147705 187.22185547 308.13147705 187.89453125 309.03076172 C243.16721555 383.27601424 268.80552671 474.2794668 258.5625 566.25 C258.4495459 567.28866211 258.3365918 568.32732422 258.22021484 569.39746094 C248.25311963 656.52615137 203.29918425 735.9725215 146.97167969 801.60253906 C145.53847461 803.2780879 144.11600262 804.96226974 142.6953125 806.6484375 C136.42751262 814.06230156 129.94267582 821.23094296 123.27734375 828.2890625 C120.76127627 830.95344554 118.28716946 833.65244603 115.82601929 836.36759949 C109.75127897 843.05478306 103.46358237 849.50346371 97.0637207 855.87915039 C95.36226222 857.57519726 93.66628737 859.27659821 91.97070312 860.97851562 C86.88681281 866.06550596 81.7920815 871.06894174 76.31762695 875.73999023 C73.37336265 878.27306503 70.5747922 880.96047102 67.75 883.625 C62.75704716 888.29683901 57.65681243 892.74800315 52.31640625 897.0234375 C49.85060273 899.01706588 47.43658679 901.06026579 45.03344727 903.12866211 C37.44863912 909.64600452 29.54415985 915.6995812 21.56689453 921.72607422 C19.75066085 923.10694275 17.94802836 924.50272777 16.15234375 925.91015625 C7.8661835 932.40011374 -0.71271591 938.3692063 -9.4375 944.25 C-10.14003906 944.72695312 -10.84257813 945.20390625 -11.56640625 945.6953125 C-30.32391527 958.42726962 -49.59766887 970.27899233 -69.4375 981.25 C-70.26121094 981.70584473 -71.08492187 982.16168945 -71.93359375 982.63134766 C-116.99567752 1007.36032293 -172.90078182 1032.63401914 -225.4375 1030.25 C-222.56188109 1012.13690616 -207.05868784 994.77146596 -197.21484375 979.83984375 C-162.77564398 927.57583139 -124.99154302 868.84153797 -137.4375 803.25 C-141.25361311 785.17206956 -147.76014644 768.51120258 -156.4375 752.25 C-156.75444824 751.64945801 -157.07139648 751.04891602 -157.39794922 750.43017578 C-162.5735474 740.70412943 -168.73941042 731.96721643 -175.4375 723.25 C-176.1284375 722.34378906 -176.819375 721.43757812 -177.53125 720.50390625 C-182.80446416 713.75030204 -188.57368659 707.48791427 -194.4375 701.25 C-195.05882812 700.56292969 -195.68015625 699.87585938 -196.3203125 699.16796875 C-205.71110658 689.1665625 -217.61147867 681.01600969 -229.32275391 673.96508789 C-230.72500295 673.10834236 -232.08657565 672.18558469 -233.4375 671.25 C-233.4375 670.59 -233.4375 669.93 -233.4375 669.25 C-187.11832315 652.66102484 -141.12439897 661.27092459 -97.37901306 681.8384552 C-79.33469207 690.42257263 -61.88082989 699.97052402 -44.54736328 709.90673828 C-18.64215563 724.71812339 8.88139314 737.76402412 39.44140625 732.59375 C58.32283557 727.3224003 71.35420243 714.36001813 80.85913086 697.79516602 C85.32155617 689.63496555 88.20976839 681.24144718 90.5625 672.25 C90.84287109 671.21939453 90.84287109 671.21939453 91.12890625 670.16796875 C92.6578963 664.08454025 92.87070956 658.25389005 92.8125 652 C92.80863281 650.99380615 92.80476562 649.9876123 92.80078125 648.95092773 C92.71508552 641.55788552 92.11973661 634.49393099 90.5625 627.25 C90.41554688 628.19359375 90.26859375 629.1371875 90.1171875 630.109375 C88.13766936 641.44040989 84.92602778 653.5534384 75.37109375 660.9453125 C61.46593301 669.32964336 45.98014826 670.46722901 30.3125 666.6875 C22.28837442 664.54520422 12.01319456 661.40604696 6.61328125 654.90234375 C5.20251587 651.34134118 5.32522661 649.89973476 6.5625 646.25 C8.49930886 643.26240969 10.73275202 640.5538705 13 637.8125 C19.34590897 629.89685176 25.15390557 621.82939169 30.5625 613.25 C30.92617676 612.67813965 31.28985352 612.1062793 31.66455078 611.51708984 C38.50248427 600.69470385 44.39493266 589.36331245 50.18505859 577.95410156 C51.4356409 575.49904137 52.7099193 573.05784323 53.98828125 570.6171875 C54.66094951 569.28751628 55.3316943 567.95686923 56 566.625 C56.57621094 565.49835937 57.15242187 564.37171875 57.74609375 563.2109375 C58.89535212 560.24728908 58.89535212 560.24728908 57.3984375 557.546875 C33.20663964 527.28139172 -8.43792036 512.54235381 -44.4375 503.25 C-46.0859756 502.80613104 -47.7344155 502.36212949 -49.3828125 501.91796875 C-82.99499541 493.1311673 -118.22020451 490.08634067 -152.59822083 485.65873718 C-163.49105836 484.25203963 -174.37321747 482.77552532 -185.25 481.25 C-186.00628693 481.1440451 -186.76257385 481.03809021 -187.54177856 480.92892456 C-191.5075156 480.37276386 -195.47277966 479.81337056 -199.4375 479.25 C-187.60196364 500.74913919 -175.58766704 522.13166552 -162.63574219 542.98461914 C-159.4375 548.14984108 -159.4375 548.14984108 -159.4375 549.25 C-195.37884386 548.41591818 -229.17849327 532.02074514 -254.484375 507.24609375 C-262.02828832 499.29480911 -268.2048807 489.54871632 -272.5703125 479.5078125 C-272.90804688 478.73373047 -273.24578125 477.95964844 -273.59375 477.16210938 C-274.22455222 475.67285656 -274.8277766 474.17152117 -275.3984375 472.65820312 C-276.31217957 470.29817241 -276.31217957 470.29817241 -278.4375 467.25 C-281.14523509 466.41795161 -283.67139134 465.77485456 -286.4375 465.25 C-287.69457764 465.01015381 -288.95165527 464.77030762 -290.24682617 464.52319336 C-291.5743091 464.29310242 -292.90221136 464.06542092 -294.23046875 463.83984375 C-295.74436573 463.57512076 -297.25811266 463.30953855 -298.77172852 463.04321289 C-299.56153107 462.90448761 -300.35133362 462.76576233 -301.16506958 462.62283325 C-320.7769263 459.15212803 -340.08140214 454.7823039 -359.35791016 449.78845215 C-361.33415852 449.27675741 -363.31158023 448.76960063 -365.2890625 448.26269531 C-401.86504842 438.8152043 -438.66458168 426.62459419 -472.85009766 410.47167969 C-475.72079096 409.11624005 -478.60087559 407.78173327 -481.48046875 406.4453125 C-507.75466083 394.15049337 -532.91113469 379.63591513 -555.4375 361.25 C-555.99985352 360.79447754 -556.56220703 360.33895508 -557.14160156 359.86962891 C-572.47067247 347.3825593 -591.19911328 330.65767188 -594.80859375 310.140625 C-595.15158381 304.77750765 -593.44562473 300.5527607 -590.4375 296.25 C-586.85050699 292.47421789 -583.58092528 291.92502256 -578.5625 291.6875 C-541.40365643 292.89244158 -503.09862579 309.80560557 -469.4375 324.25 C-493.51019028 302.91498823 -521.79044464 288.36156666 -551.75878906 277.28149414 C-557.87136185 275.01753179 -563.94566743 272.68931157 -569.953125 270.16015625 C-571.05301758 269.69746338 -572.15291016 269.23477051 -573.28613281 268.75805664 C-581.3038509 264.9212543 -587.91355936 259.94069909 -592.4375 252.25 C-594.29611853 246.67414442 -594.23151389 240.5438179 -592.3125 235 C-588.12842214 228.86335248 -583.55831144 224.16761939 -577.375 220.0625 C-576.35212891 219.37256958 -576.35212891 219.37256958 -575.30859375 218.66870117 C-562.02469877 209.86367302 -547.96586042 202.20210878 -533.609375 195.30126953 C-531.24090759 194.15484185 -528.88641721 192.98208852 -526.53125 191.80859375 C-455.53444406 156.75517945 -375.93393937 134.20686022 -266.4375 121.25 C-265.22715088 121.15283691 -264.01680176 121.05567383 -262.76977539 120.95556641 C-255.00126425 120.39575405 -247.28470791 120.19097739 -239.49609375 120.1796875 C-236.60277732 120.16467311 -233.70947058 120.14830684 -230.81616211 120.13183594 C-228.83926975 120.12724118 -226.86232444 120.13360092 -224.88549805 120.15039062 C-221.98378343 120.17135712 -219.08515949 120.14817755 -216.18359375 120.1171875 C-215.30746933 120.13457977 -214.43134491 120.15197205 -213.52867126 120.16989136 C-208.58590631 120.07288783 -206.04433083 119.38708102 -202.49291992 115.83740234 C-201.46673467 114.64821304 -200.44747343 113.45298839 -199.4375 112.25 C-197.75529452 110.80240478 -196.04867308 109.38240741 -194.3125 108 C-190.79342428 105.16943909 -187.31689582 102.30554652 -183.89428711 99.35888672 C-175.67769265 92.30014852 -167.11916322 85.72433069 -158.4375 79.25 C-157.37619873 78.45722656 -157.37619873 78.45722656 -156.29345703 77.6484375 C-128.61744942 57.07355246 -98.98295165 39.21073041 -68.4375 23.25 C-66.89739258 22.44199951 -66.89739258 22.44199951 -65.32617188 21.61767578 C-53.36647498 15.3804902 -41.25209966 9.52731312 -28.83969116 4.24807739 C-26.99089324 3.46025237 -25.14828776 2.65794474 -23.3059082 1.85522461 C-15.3977704 -1.42770376 -8.02186548 -4.08385879 0 0 Z " fill="#126A6F" transform="translate(666.4375,283.75)"/>
<path d="M0 0 C29.01486851 -1.19916071 56.60940748 5.99212086 78.59619141 25.65869141 C86.90289125 33.34092869 94.0252572 41.34786842 99.84716797 51.09423828 C100.40911865 52.02695557 100.40911865 52.02695557 100.98242188 52.97851562 C120.38327977 85.79010478 124.8988113 125.67299981 115.52294922 162.40673828 C112.69464728 172.96364976 109.13386792 183.04693366 104.84716797 193.09423828 C105.63027344 192.90313477 106.41337891 192.71203125 107.22021484 192.51513672 C123.36273832 188.59965598 139.45689445 184.86547404 155.91601562 182.51611328 C157.84484845 182.23850016 159.77176773 181.94718968 161.69628906 181.64111328 C178.13032211 179.0566729 194.49682679 178.7799275 211.09716797 178.71923828 C212.14918396 178.71138306 213.20119995 178.70352783 214.28509521 178.69543457 C232.43031209 178.59005631 250.14800706 179.94944113 267.84716797 184.09423828 C267.84716797 184.42423828 267.84716797 184.75423828 267.84716797 185.09423828 C266.90736084 185.08376465 265.96755371 185.07329102 264.99926758 185.0625 C246.52985168 184.88437831 228.20356539 184.74278541 209.84716797 187.09423828 C208.89890137 187.21250977 207.95063477 187.33078125 206.97363281 187.45263672 C181.77488484 190.7215286 157.03357289 197.41970595 132.84716797 205.09423828 C147.38491627 222.56399513 168.71897238 232.95659463 191.20654297 235.80908203 C224.70575062 238.43294701 255.23255175 229.59524496 282.37451172 209.80908203 C308.45881197 191.7190223 336.72701195 186.37963603 367.84716797 185.09423828 C312.5856649 148.97646457 249.50634082 133.62870805 184.07055664 146.73803711 C167.48834022 150.26710571 150.79467088 154.67632545 135.14013672 161.24658203 C132.84716797 162.09423828 132.84716797 162.09423828 129.84716797 162.09423828 C130.12741821 161.19088745 130.12741821 161.19088745 130.41333008 160.26928711 C132.28454089 154.14902832 133.92917216 148.00729323 135.40966797 141.78173828 C135.61785156 140.93417969 135.82603516 140.08662109 136.04052734 139.21337891 C138.76302771 127.81984287 140.21949711 116.68976736 140.15966797 104.96923828 C140.15402832 103.79417725 140.14838867 102.61911621 140.14257812 101.40844727 C139.76671279 74.154489 130.99875709 50.18138828 118.84716797 26.09423828 C139.06562284 25.60184429 158.77044142 26.89720203 178.84716797 29.09423828 C180.4162793 29.26246094 180.4162793 29.26246094 182.01708984 29.43408203 C263.31917881 38.37565597 346.1915758 66.71357838 409.84716797 119.09423828 C410.39034668 119.53977051 410.93352539 119.98530273 411.49316406 120.44433594 C442.50989999 145.99888949 468.98039004 176.04733111 488.84716797 211.09423828 C489.29769531 211.87395996 489.74822266 212.65368164 490.21240234 213.45703125 C513.90820863 254.59250804 528.26633842 300.48312767 528.1628418 348.1184082 C528.15969767 351.12830431 528.18317909 354.13719819 528.20849609 357.14697266 C528.49528642 444.21047921 482.30819429 521.53523 427.84716797 586.09423828 C427.05052734 587.03952393 427.05052734 587.03952393 426.23779297 588.00390625 C420.38905092 594.92576217 414.43666806 601.7335593 408.29638672 608.39892578 C406.32254317 610.57109811 404.38367483 612.76381662 402.45654297 614.97705078 C392.56713576 626.30460393 382.02623139 637.01559902 371.40966797 647.65673828 C370.63878342 648.43150513 370.63878342 648.43150513 369.85232544 649.22192383 C364.56031168 654.53496574 359.24086233 659.76381003 353.53930664 664.64282227 C351.20559814 666.64453876 348.97058472 668.74764388 346.72216797 670.84423828 C341.50639087 675.60022236 336.0549284 679.9602198 330.46826172 684.27001953 C328.12909185 686.07815484 325.83339292 687.92287415 323.56982422 689.82470703 C297.3841758 711.69060115 263.68547998 734.23033473 230.84716797 744.09423828 C230.18716797 743.76423828 229.52716797 743.43423828 228.84716797 743.09423828 C229.38341797 742.43423828 229.91966797 741.77423828 230.47216797 741.09423828 C254.12217366 711.22054688 279.97912138 674.02227005 276.84716797 634.09423828 C272.10930771 607.72205228 250.75939592 587.75273424 229.84716797 573.09423828 C226.2443706 570.65780008 222.57390963 568.33659979 218.84716797 566.09423828 C222.17583078 564.98468401 222.71618817 565.14702842 225.86523438 566.27832031 C226.67102936 566.56256866 227.47682434 566.84681702 228.30703735 567.13967896 C229.17879608 567.45726166 230.05055481 567.77484436 230.94873047 568.10205078 C231.85859711 568.42454803 232.76846375 568.74704529 233.7059021 569.07931519 C236.63112966 570.11737971 239.55184601 571.16746006 242.47216797 572.21923828 C282.24022264 586.47114011 324.19561004 598.53300859 364.84716797 580.09423828 C395.10646115 565.76088888 416.61141941 536.66814706 427.89794922 505.75439453 C429.41692507 501.25127145 430.70592407 496.70663098 431.84716797 492.09423828 C432.01394043 491.42263672 432.18071289 490.75103516 432.35253906 490.05908203 C437.27497865 469.70153126 437.61721695 448.50312446 432.84716797 428.09423828 C432.55385352 426.7388443 432.26088785 425.38337479 431.96826172 424.02783203 C422.41814039 381.50632495 393.35242788 343.93442086 357.04248047 320.60986328 C353.37305658 318.32408777 349.6224399 316.198933 345.84716797 314.09423828 C345.20908203 313.72878906 344.57099609 313.36333984 343.91357422 312.98681641 C308.24273137 292.60852302 266.86991247 283.95368845 226.40966797 279.59423828 C225.00442871 279.43932419 225.00442871 279.43932419 223.57080078 279.28128052 C203.68616658 277.10236631 183.75715294 275.68550596 163.80467224 274.2976532 C119.29097884 271.19689309 74.87564213 266.89705029 30.72216797 260.40673828 C29.68650696 260.25635101 28.65084595 260.10596375 27.58380127 259.95101929 C24.66753976 259.52476234 21.75323938 259.08720537 18.83935547 258.64501953 C17.534935 258.45463608 17.534935 258.45463608 16.2041626 258.26040649 C15.4068573 258.13636444 14.609552 258.01232239 13.78808594 257.88452148 C12.74924759 257.72727348 12.74924759 257.72727348 11.68942261 257.56684875 C9.84716797 257.09423828 9.84716797 257.09423828 6.84716797 255.09423828 C8.40951172 254.40201172 8.40951172 254.40201172 10.00341797 253.69580078 C35.74345445 242.07312376 58.81677843 225.42777028 73.84716797 201.09423828 C74.54455078 199.98435547 75.24193359 198.87447266 75.96044922 197.73095703 C85.61906498 181.90894554 92.22740658 162.71290332 92.84716797 144.09423828 C92.87294922 143.44825684 92.89873047 142.80227539 92.92529297 142.13671875 C93.83175696 116.58009949 87.71697573 93.12022158 76.84716797 70.09423828 C76.83314941 71.33004639 76.83314941 71.33004639 76.81884766 72.59082031 C76.17270075 118.14417752 65.11872468 157.62743873 32.84716797 191.09423828 C32.13173828 191.87283203 31.41630859 192.65142578 30.67919922 193.45361328 C12.98264756 212.17942029 -11.96335692 223.79811921 -37.15283203 228.09423828 C-38.21244141 228.27986328 -39.27205078 228.46548828 -40.36376953 228.65673828 C-99.79268613 235.51863381 -170.96702633 201.44315102 -217.15283203 166.09423828 C-217.76658691 165.62711426 -218.3803418 165.15999023 -219.01269531 164.67871094 C-220.92005529 163.22122283 -222.81979024 161.75455836 -224.71533203 160.28173828 C-225.28767578 159.83749512 -225.86001953 159.39325195 -226.44970703 158.93554688 C-229.92543485 156.19149691 -233.04631293 153.24411791 -236.15283203 150.09423828 C-223.51311083 152.77962116 -211.03401595 155.86326343 -198.59033203 159.34423828 C-197.68385925 159.59723694 -196.77738647 159.8502356 -195.84344482 160.11090088 C-163.49785922 169.18113432 -131.49617027 179.56367526 -100.25488281 191.9296875 C-99.17465347 192.35300858 -99.17465347 192.35300858 -98.07260132 192.78488159 C-96.15855606 193.53674998 -94.24876626 194.29942704 -92.33935547 195.06298828 C-89.36748675 196.02476988 -87.24163051 196.32724524 -84.15283203 196.09423828 C-86.39900312 178.92350815 -102.58407785 164.05940894 -114.15283203 152.09423828 C-115.09980957 151.11438965 -115.09980957 151.11438965 -116.06591797 150.11474609 C-123.24455158 142.72753233 -130.42386369 135.51949681 -138.53564453 129.15283203 C-141.35241096 126.93725605 -144.05778326 124.61478824 -146.77783203 122.28173828 C-169.31917729 103.51178927 -195.66338938 87.59857146 -222.15283203 75.09423828 C-219.94380742 72.68761242 -217.75387811 71.15890101 -214.89111328 69.59814453 C-214.03275879 69.12844238 -213.1744043 68.65874023 -212.29003906 68.17480469 C-210.89180908 67.42336182 -210.89180908 67.42336182 -209.46533203 66.65673828 C-208.48419434 66.12741699 -207.50305664 65.5980957 -206.4921875 65.05273438 C-143.17052278 31.10637469 -72.54493462 3.17558911 0 0 Z " fill="#FDFEFE" transform="translate(357.15283203125,461.90576171875)"/>
<path d="M0 0 C3.87528394 2.74062873 6.3004184 5.72200695 8.6015625 9.83984375 C9.5296875 11.47953125 9.5296875 11.47953125 10.4765625 13.15234375 C12.83184466 20.87243529 12.32018704 28.13080046 8.98828125 35.484375 C5.32082954 41.71387748 -0.00749468 46.6005428 -6.78515625 49.2109375 C-15.26468363 51.25160104 -23.61065626 50.882195 -31.2109375 46.45703125 C-36.99351546 42.18205397 -41.4519757 36.82420668 -43.3984375 29.83984375 C-44.56002397 19.89457535 -42.95518051 12.71951215 -36.82421875 4.80859375 C-26.79670092 -6.22401328 -12.7344537 -7.14003011 0 0 Z " fill="#12676C" transform="translate(286.3984375,510.16015625)"/>
<path d="M0 0 C0.99 0.495 0.99 0.495 2 1 C1.28158936 1.47195801 0.56317871 1.94391602 -0.17700195 2.43017578 C-23.72872575 17.93347973 -46.13072092 33.97498279 -67 53 C-67.94488281 53.84046875 -68.88976562 54.6809375 -69.86328125 55.546875 C-78.15558601 62.96082072 -86.5709386 70.80938009 -93.0625 79.8828125 C-95 82 -95 82 -97.15625 82.375 C-98.31640625 82.189375 -98.31640625 82.189375 -99.5 82 C-100.36367188 81.86722656 -101.22734375 81.73445313 -102.1171875 81.59765625 C-107.1224195 80.5599862 -112.06943527 79.34700995 -117 78 C-115.86848883 76.86848883 -114.73623871 75.73771224 -113.6015625 74.609375 C-112.48182553 73.4841759 -111.37329023 72.34776812 -110.2734375 71.203125 C-105.35424964 66.14223214 -100.10358968 61.68938547 -94.58984375 57.29101562 C-92.93161689 55.94447023 -91.30865745 54.56277567 -89.6875 53.171875 C-64.47643472 31.76631828 -35.30115791 15.0078889 -5 2 C-3.6696875 1.40662842 -3.6696875 1.40662842 -2.3125 0.80126953 C-1.1678125 0.40464111 -1.1678125 0.40464111 0 0 Z " fill="#F9FAFA" transform="translate(650,336)"/>
<path d="M0 0 C-0.45737549 0.31638428 -0.91475098 0.63276855 -1.38598633 0.95874023 C-22.19198939 15.39060461 -41.6636366 31.54132823 -58 51 C-60.60453175 50.35561067 -63.2086291 49.7095496 -65.8125 49.0625 C-66.55048828 48.88009766 -67.28847656 48.69769531 -68.04882812 48.50976562 C-71.07060984 47.7577385 -74.04456718 46.98514427 -77 46 C-77 45.34 -77 44.68 -77 44 C-75.05965509 42.2841324 -73.11532065 40.69756606 -71.0625 39.125 C-70.43569336 38.6410376 -69.80888672 38.1570752 -69.16308594 37.65844727 C-67.11820511 36.09263127 -65.0619666 34.5432389 -63 33 C-62.32630371 32.49549316 -61.65260742 31.99098633 -60.95849609 31.47119141 C-50.46137186 23.68186807 -39.58775938 17.03619951 -28 11 C-27.27828613 10.62327148 -26.55657227 10.24654297 -25.81298828 9.85839844 C-3.46126545 -1.73063272 -3.46126545 -1.73063272 0 0 Z " fill="#F9F9F9" transform="translate(674,383)"/>
<path d="M0 0 C-0.65484375 0.40089844 -1.3096875 0.80179687 -1.984375 1.21484375 C-13.46168113 8.36384376 -24.83262531 16.44293462 -34.77734375 25.64453125 C-38.42529949 29.01401709 -38.42529949 29.01401709 -41.5625 28.9375 C-42.366875 28.628125 -43.17125 28.31875 -44 28 C-45.3921875 27.4740625 -45.3921875 27.4740625 -46.8125 26.9375 C-47.534375 26.628125 -48.25625 26.31875 -49 26 C-49 25.34 -49 24.68 -49 24 C-47.07140805 22.56130761 -45.16128748 21.27185682 -43.125 20 C-42.50367188 19.60772217 -41.88234375 19.21544434 -41.2421875 18.8112793 C-7.21112169 -2.40370723 -7.21112169 -2.40370723 0 0 Z " fill="#F5F6F6" transform="translate(706,422)"/>
<path d="M0 0 C0.66 0.33 1.32 0.66 2 1 C1.44570313 1.54269531 0.89140625 2.08539063 0.3203125 2.64453125 C-0.76636719 3.71767578 -0.76636719 3.71767578 -1.875 4.8125 C-2.59429688 5.52019531 -3.31359375 6.22789062 -4.0546875 6.95703125 C-6.15358937 9.04399194 -6.15358937 9.04399194 -8 12 C-10.5 13.5 -10.5 13.5 -13 15 C-14.64760066 16.51663081 -16.25248462 18.08091699 -17.8125 19.6875 C-18.99779297 20.89986328 -18.99779297 20.89986328 -20.20703125 22.13671875 C-21.09455078 23.05904297 -21.09455078 23.05904297 -22 24 C-22 21 -22 21 -19.875 18.546875 C-18.92490609 17.60618796 -17.96600802 16.67433708 -17 15.75 C-16.50177734 15.26273437 -16.00355469 14.77546875 -15.49023438 14.2734375 C-11.98502611 10.87172062 -8.38312121 7.59586544 -4.65625 4.4375 C-3.02723284 3.02363605 -1.50628283 1.54302144 0 0 Z " fill="#204E55" transform="translate(590,381)"/>
<path d="M0 0 C0 0.33 0 0.66 0 1 C-8.25 1 -16.5 1 -25 1 C-25 0.67 -25 0.34 -25 0 C-21.77300955 -0.39558104 -18.54339174 -0.76278238 -15.3125 -1.125 C-14.40048828 -1.23714844 -13.48847656 -1.34929688 -12.54882812 -1.46484375 C-4.18266684 -2.37751589 -4.18266684 -2.37751589 0 0 Z " fill="#215E64" transform="translate(726,647)"/>
<path d="M0 0 C0.66 0.99 1.32 1.98 2 3 C1.390625 5.0859375 1.390625 5.0859375 0.25 7.375 C-0.32234375 8.56029297 -0.32234375 8.56029297 -0.90625 9.76953125 C-1.2671875 10.50558594 -1.628125 11.24164062 -2 12 C-2.67834587 13.66194738 -3.35199575 15.32598903 -4 17 C-5.30457818 13.08626547 -4.37656943 11.2678125 -3.125 7.375 C-2.75632812 6.20710938 -2.38765625 5.03921875 -2.0078125 3.8359375 C-1 1 -1 1 0 0 Z " fill="#1C5359" transform="translate(526,1156)"/>
<path d="M0 0 C4.62 0.66 9.24 1.32 14 2 C14 2.33 14 2.66 14 3 C9.38 3 4.76 3 0 3 C0 2.01 0 1.02 0 0 Z " fill="#2E666B" transform="translate(441,1311)"/>
<path d="M0 0 C0.66 0.33 1.32 0.66 2 1 C0.35 2.98 -1.3 4.96 -3 7 C-4.32 6.67 -5.64 6.34 -7 6 C-4.69 4.02 -2.38 2.04 0 0 Z " fill="#0F5559" transform="translate(605,369)"/>
<path d="M0 0 C0.99 0.33 1.98 0.66 3 1 C1.74057614 2.19959375 0.46704714 3.38439443 -0.8125 4.5625 C-1.87404297 5.55443359 -1.87404297 5.55443359 -2.95703125 6.56640625 C-3.63121094 7.03949219 -4.30539062 7.51257813 -5 8 C-5.99 7.67 -6.98 7.34 -8 7 C-6.74057614 5.80040625 -5.46704714 4.61560557 -4.1875 3.4375 C-3.12595703 2.44556641 -3.12595703 2.44556641 -2.04296875 1.43359375 C-1.36878906 0.96050781 -0.69460938 0.48742187 0 0 Z " fill="#0D6063" transform="translate(571,401)"/>
<path d="M0 0 C0.66 0.33 1.32 0.66 2 1 C-2.95 3.97 -2.95 3.97 -8 7 C-7.67 5.68 -7.34 4.36 -7 3 C-3.5625 1.1875 -3.5625 1.1875 0 0 Z " fill="#DDDEE0" transform="translate(650,336)"/>
<path d="M0 0 C0.33 0 0.66 0 1 0 C1.3125 2.3125 1.3125 2.3125 1 5 C-1.5 6.8125 -1.5 6.8125 -4 8 C-2.87548273 5.0280615 -1.77706209 2.66559313 0 0 Z " fill="#195B60" transform="translate(699,894)"/>
<path d="M0 0 C3.24208567 0.35049575 4.61527704 0.56221181 6.8125 3.0625 C7.204375 3.701875 7.59625 4.34125 8 5 C5.03 4.01 2.06 3.02 -1 2 C-0.67 1.34 -0.34 0.68 0 0 Z " fill="#EEEFF1" transform="translate(190,604)"/>
<path d="M0 0 C-2.97 1.65 -5.94 3.3 -9 5 C-8.67 3.68 -8.34 2.36 -8 1 C-4.70594381 -0.82039948 -3.63772813 -1.21257604 0 0 Z " fill="#DEDFE2" transform="translate(706,422)"/>
</svg>
